<svg width="700px" height="160px" xmlns="http://www.w3.org/2000/svg" 
viewBox="-70 0 700 160" style="background: rgb(0%, 0%, 0%, 0);" preserveAspectRatio="xMidYMid">

<defs><linearGradient id="editing-outline-gradient" x1="-0.015038074910054156" x2="1.0150380749100543" y1="1.3571673007021123" y2="-0.35716730070211233"><stop offset="0" stop-color="#4c5bdb"></stop><stop offset="1" stop-color="#ef5dab"></stop></linearGradient><filter id="editing-outline" x="-100%" y="-100%" width="300%" height="300%"><feMorphology in="SourceGraphic" operator="dilate" radius="3" result="outline"></feMorphology><feComposite operator="out" in="outline" in2="SourceAlpha"></feComposite></filter></defs><g filter="url(#editing-outline)"><g transform="translate(-74.67500019073486, 132.75)"><path d="M103.05-103.80L117.60-103.80L117.60 0L103.95 0L103.95-77.40L69.45 0L59.85 0L25.20-77.25L25.20 0L11.55 0L11.55-103.80L26.25-103.80L64.65-18L103.05-103.80ZM147.75-95.55L147.75-95.55Q143.85-95.55 141.15-98.25L141.15-98.25L141.15-98.25Q138.45-100.95 138.45-104.85L138.45-104.85L138.45-104.85Q138.45-108.75 141.15-111.45L141.15-111.45L141.15-111.45Q143.85-114.15 147.75-114.15L147.75-114.15L147.75-114.15Q151.50-114.15 154.13-111.45L154.13-111.45L154.13-111.45Q156.75-108.75 156.75-104.85L156.75-104.85L156.75-104.85Q156.75-100.95 154.13-98.25L154.13-98.25L154.13-98.25Q151.50-95.55 147.75-95.55L147.75-95.55ZM140.70-82.20L154.35-82.20L154.35 0L140.70 0L140.70-82.20ZM172.50-41.25L172.50-41.25Q172.50-54 177.60-63.52L177.60-63.52L177.60-63.52Q182.70-73.05 191.78-78.30L191.78-78.30L191.78-78.30Q200.85-83.55 212.55-83.55L212.55-83.55L212.55-83.55Q227.70-83.55 237.53-76.20L237.53-76.20L237.53-76.20Q247.35-68.85 250.50-55.80L250.50-55.80L235.80-55.80L235.80-55.80Q233.70-63.30 227.63-67.65L227.63-67.65L227.63-67.65Q221.55-72 212.55-72L212.55-72L212.55-72Q200.85-72 193.65-63.97L193.65-63.97L193.65-63.97Q186.45-55.95 186.45-41.25L186.45-41.25L186.45-41.25Q186.45-26.40 193.65-18.30L193.65-18.30L193.65-18.30Q200.85-10.20 212.55-10.20L212.55-10.20L212.55-10.20Q221.55-10.20 227.55-14.40L227.55-14.40L227.55-14.40Q233.55-18.60 235.80-26.40L235.80-26.40L250.50-26.40L250.50-26.40Q247.20-13.80 237.30-6.22L237.30-6.22L237.30-6.22Q227.40 1.35 212.55 1.35L212.55 1.35L212.55 1.35Q200.85 1.35 191.78-3.90L191.78-3.90L191.78-3.90Q182.70-9.15 177.60-18.75L177.60-18.75L177.60-18.75Q172.50-28.35 172.50-41.25L172.50-41.25ZM309.45-83.70L309.45-83.70Q318.75-83.70 326.25-79.72L326.25-79.72L326.25-79.72Q333.75-75.75 338.03-67.80L338.03-67.80L338.03-67.80Q342.30-59.85 342.30-48.45L342.30-48.45L342.30 0L328.80 0L328.80-46.50L328.80-46.50Q328.80-58.80 322.65-65.33L322.65-65.33L322.65-65.33Q316.50-71.85 305.85-71.85L305.85-71.85L305.85-71.85Q295.05-71.85 288.68-65.10L288.68-65.10L288.68-65.10Q282.30-58.35 282.30-45.45L282.30-45.45L282.30 0L268.65 0L268.65-111L282.30-111L282.30-70.50L282.30-70.50Q286.35-76.80 293.48-80.25L293.48-80.25L293.48-80.25Q300.60-83.70 309.45-83.70L309.45-83.70ZM439.65-44.55L439.65-44.55Q439.65-40.80 439.20-36.45L439.20-36.45L373.50-36.45L373.50-36.45Q374.10-24.30 381.68-17.25L381.68-17.25L381.68-17.25Q389.25-10.20 400.20-10.20L400.20-10.20L400.20-10.20Q409.05-10.20 414.98-14.32L414.98-14.32L414.98-14.32Q420.90-18.45 423.30-25.35L423.30-25.35L438-25.35L438-25.35Q434.70-13.50 424.80-6.08L424.80-6.08L424.80-6.08Q414.90 1.35 400.20 1.35L400.20 1.35L400.20 1.35Q388.50 1.35 379.28-3.90L379.28-3.90L379.28-3.90Q370.05-9.15 364.80-18.82L364.80-18.82L364.80-18.82Q359.55-28.50 359.55-41.25L359.55-41.25L359.55-41.25Q359.55-54 364.65-63.60L364.65-63.60L364.65-63.60Q369.75-73.20 378.98-78.38L378.98-78.38L378.98-78.38Q388.20-83.55 400.20-83.55L400.20-83.55L400.20-83.55Q411.90-83.55 420.83-78.45L420.83-78.45L420.83-78.45Q429.75-73.35 434.70-64.50L434.70-64.50L434.70-64.50Q439.65-55.65 439.65-44.55L439.65-44.55ZM425.55-46.35L425.55-46.35Q425.55-54.45 422.10-60.22L422.10-60.22L422.10-60.22Q418.65-66 412.73-69L412.73-69L412.73-69Q406.80-72 399.60-72L399.60-72L399.60-72Q389.10-72 381.75-65.17L381.75-65.17L381.75-65.17Q374.40-58.35 373.65-46.35L373.65-46.35L425.55-46.35ZM457.65-111L471.30-111L471.30 0L457.65 0L457.65-111ZM494.55-111L508.20-111L508.20 0L494.55 0L494.55-111ZM606.45-44.55L606.45-44.55Q606.45-40.80 606-36.45L606-36.45L540.30-36.45L540.30-36.45Q540.90-24.30 548.48-17.25L548.48-17.25L548.48-17.25Q556.05-10.20 567-10.20L567-10.20L567-10.20Q575.85-10.20 581.77-14.32L581.77-14.32L581.77-14.32Q587.70-18.45 590.10-25.35L590.10-25.35L604.80-25.35L604.80-25.35Q601.50-13.50 591.60-6.08L591.60-6.08L591.60-6.08Q581.70 1.35 567 1.35L567 1.35L567 1.35Q555.30 1.35 546.07-3.90L546.07-3.90L546.07-3.90Q536.85-9.15 531.60-18.82L531.60-18.82L531.60-18.82Q526.35-28.50 526.35-41.25L526.35-41.25L526.35-41.25Q526.35-54 531.45-63.60L531.45-63.60L531.45-63.60Q536.55-73.20 545.77-78.38L545.77-78.38L545.77-78.38Q555-83.55 567-83.55L567-83.55L567-83.55Q578.70-83.55 587.63-78.45L587.63-78.45L587.63-78.45Q596.55-73.35 601.50-64.50L601.50-64.50L601.50-64.50Q606.45-55.65 606.45-44.55L606.45-44.55ZM592.35-46.35L592.35-46.35Q592.35-54.45 588.90-60.22L588.90-60.22L588.90-60.22Q585.45-66 579.52-69L579.52-69L579.52-69Q573.60-72 566.40-72L566.40-72L566.40-72Q555.90-72 548.55-65.17L548.55-65.17L548.55-65.17Q541.20-58.35 540.45-46.35L540.45-46.35L592.35-46.35ZM628.80 0.90L628.80 0.90Q624.90 0.90 622.20-1.80L622.20-1.80L622.20-1.80Q619.50-4.50 619.50-8.40L619.50-8.40L619.50-8.40Q619.50-12.30 622.20-15L622.20-15L622.20-15Q624.90-17.70 628.80-17.70L628.80-17.70L628.80-17.70Q632.55-17.70 635.17-15L635.17-15L635.17-15Q637.80-12.30 637.80-8.40L637.80-8.40L637.80-8.40Q637.80-4.50 635.17-1.80L635.17-1.80L635.17-1.80Q632.55 0.90 628.80 0.90L628.80 0.90Z" fill="url(#editing-outline-gradient)"></path></g></g><style>text {
  font-size: 64px;
  font-family: Arial Black;
  dominant-baseline: central;
  text-anchor: middle;
}</style></svg>